<mxfile host="app.diagrams.net" modified="2021-10-19T11:46:55.509Z" agent="5.0 (X11)" etag="F8KxI0FWcFohx-4qxZ1B" version="15.5.5" type="github">
  <diagram id="cRu32RqCK4BLnh1sHEem" name="Page-1">
    <mxGraphModel dx="977" dy="499" grid="1" gridSize="10" guides="1" tooltips="1" connect="1" arrows="1" fold="1" page="1" pageScale="1" pageWidth="827" pageHeight="1169" math="0" shadow="0">
      <root>
        <mxCell id="0" />
        <mxCell id="1" parent="0" />
        <mxCell id="47qLA5IY4Jjz_HCi7pHy-28" value="" style="rounded=0;whiteSpace=wrap;html=1;" vertex="1" parent="1">
          <mxGeometry x="174" y="46" width="610" height="437" as="geometry" />
        </mxCell>
        <mxCell id="47qLA5IY4Jjz_HCi7pHy-1" value="Agent de voyage" style="shape=umlActor;verticalLabelPosition=bottom;verticalAlign=top;html=1;outlineConnect=0;" vertex="1" parent="1">
          <mxGeometry x="110" y="210" width="30" height="60" as="geometry" />
        </mxCell>
        <mxCell id="47qLA5IY4Jjz_HCi7pHy-5" value="" style="shape=ellipse;container=1;horizontal=1;horizontalStack=0;resizeParent=1;resizeParentMax=0;resizeLast=0;html=1;dashed=0;collapsible=0;" vertex="1" parent="1">
          <mxGeometry x="300" y="240" width="120" height="80" as="geometry" />
        </mxCell>
        <mxCell id="47qLA5IY4Jjz_HCi7pHy-6" value="Organiser un voyage" style="html=1;strokeColor=none;fillColor=none;align=center;verticalAlign=middle;rotatable=0;" vertex="1" parent="47qLA5IY4Jjz_HCi7pHy-5">
          <mxGeometry y="32.666666666666664" width="120" height="20" as="geometry" />
        </mxCell>
        <mxCell id="47qLA5IY4Jjz_HCi7pHy-18" value="&amp;lt;&amp;lt;include&amp;gt;&amp;gt;" style="endArrow=open;startArrow=none;endFill=0;startFill=0;endSize=8;html=1;verticalAlign=bottom;dashed=1;labelBackgroundColor=none;rounded=0;strokeWidth=1;entryX=0.167;entryY=0.888;entryDx=0;entryDy=0;entryPerimeter=0;" edge="1" parent="47qLA5IY4Jjz_HCi7pHy-5" target="47qLA5IY4Jjz_HCi7pHy-14">
          <mxGeometry width="160" relative="1" as="geometry">
            <mxPoint x="90" y="5" as="sourcePoint" />
            <mxPoint x="142.77777777777783" y="-45" as="targetPoint" />
          </mxGeometry>
        </mxCell>
        <mxCell id="47qLA5IY4Jjz_HCi7pHy-10" value="" style="endArrow=none;startArrow=none;endFill=0;startFill=0;endSize=8;html=1;verticalAlign=bottom;labelBackgroundColor=none;strokeWidth=1;rounded=0;entryX=0;entryY=0.25;entryDx=0;entryDy=0;spacing=1;" edge="1" parent="1" target="47qLA5IY4Jjz_HCi7pHy-6">
          <mxGeometry width="160" relative="1" as="geometry">
            <mxPoint x="140" y="230" as="sourcePoint" />
            <mxPoint x="300" y="230" as="targetPoint" />
          </mxGeometry>
        </mxCell>
        <mxCell id="47qLA5IY4Jjz_HCi7pHy-11" value="" style="shape=ellipse;container=1;horizontal=1;horizontalStack=0;resizeParent=1;resizeParentMax=0;resizeLast=0;html=1;dashed=0;collapsible=0;" vertex="1" parent="1">
          <mxGeometry x="203" y="120" width="180" height="80" as="geometry" />
        </mxCell>
        <mxCell id="47qLA5IY4Jjz_HCi7pHy-12" value="Réserver une chambre d&#39;hôtel" style="html=1;strokeColor=none;fillColor=none;align=center;verticalAlign=middle;rotatable=0;" vertex="1" parent="47qLA5IY4Jjz_HCi7pHy-11">
          <mxGeometry x="60" y="19.67" width="60" height="47.33" as="geometry" />
        </mxCell>
        <mxCell id="47qLA5IY4Jjz_HCi7pHy-14" value="" style="shape=ellipse;container=1;horizontal=1;horizontalStack=0;resizeParent=1;resizeParentMax=0;resizeLast=0;html=1;dashed=0;collapsible=0;" vertex="1" parent="1">
          <mxGeometry x="425" y="120" width="120" height="80" as="geometry" />
        </mxCell>
        <mxCell id="47qLA5IY4Jjz_HCi7pHy-15" value="Réserver un taxi" style="html=1;strokeColor=none;fillColor=none;align=center;verticalAlign=middle;rotatable=0;" vertex="1" parent="47qLA5IY4Jjz_HCi7pHy-14">
          <mxGeometry y="32.666666666666664" width="120" height="20" as="geometry" />
        </mxCell>
        <mxCell id="47qLA5IY4Jjz_HCi7pHy-16" value="" style="shape=ellipse;container=1;horizontal=1;horizontalStack=0;resizeParent=1;resizeParentMax=0;resizeLast=0;html=1;dashed=0;collapsible=0;" vertex="1" parent="1">
          <mxGeometry x="600" y="120" width="170" height="80" as="geometry" />
        </mxCell>
        <mxCell id="47qLA5IY4Jjz_HCi7pHy-17" value="Réserver un billet de train" style="html=1;strokeColor=none;fillColor=none;align=center;verticalAlign=middle;rotatable=0;" vertex="1" parent="47qLA5IY4Jjz_HCi7pHy-16">
          <mxGeometry y="32.666666666666664" width="170" height="20" as="geometry" />
        </mxCell>
        <mxCell id="47qLA5IY4Jjz_HCi7pHy-19" value="&amp;lt;&amp;lt;include&amp;gt;&amp;gt;" style="endArrow=open;startArrow=none;endFill=0;startFill=0;endSize=8;html=1;verticalAlign=bottom;dashed=1;labelBackgroundColor=none;rounded=0;strokeWidth=1;entryX=0.583;entryY=1;entryDx=0;entryDy=0;entryPerimeter=0;" edge="1" parent="1" target="47qLA5IY4Jjz_HCi7pHy-11">
          <mxGeometry width="160" relative="1" as="geometry">
            <mxPoint x="313" y="255" as="sourcePoint" />
            <mxPoint x="368.03999999999996" y="201.03999999999996" as="targetPoint" />
          </mxGeometry>
        </mxCell>
        <mxCell id="47qLA5IY4Jjz_HCi7pHy-20" value="" style="shape=ellipse;container=1;horizontal=1;horizontalStack=0;resizeParent=1;resizeParentMax=0;resizeLast=0;html=1;dashed=0;collapsible=0;" vertex="1" parent="1">
          <mxGeometry x="600" y="213" width="170" height="80" as="geometry" />
        </mxCell>
        <mxCell id="47qLA5IY4Jjz_HCi7pHy-21" value="Réserver un billet d&#39;avion" style="html=1;strokeColor=none;fillColor=none;align=center;verticalAlign=middle;rotatable=0;" vertex="1" parent="47qLA5IY4Jjz_HCi7pHy-20">
          <mxGeometry y="32.666666666666664" width="170" height="20" as="geometry" />
        </mxCell>
        <mxCell id="47qLA5IY4Jjz_HCi7pHy-23" value="" style="endArrow=block;startArrow=none;endFill=0;startFill=0;endSize=8;html=1;verticalAlign=bottom;labelBackgroundColor=none;strokeWidth=1;rounded=0;entryX=1;entryY=0.25;entryDx=0;entryDy=0;exitX=0;exitY=0.5;exitDx=0;exitDy=0;" edge="1" parent="1" source="47qLA5IY4Jjz_HCi7pHy-21" target="47qLA5IY4Jjz_HCi7pHy-6">
          <mxGeometry width="160" relative="1" as="geometry">
            <mxPoint x="460" y="260" as="sourcePoint" />
            <mxPoint x="620" y="260" as="targetPoint" />
          </mxGeometry>
        </mxCell>
        <mxCell id="47qLA5IY4Jjz_HCi7pHy-25" value="" style="shape=ellipse;container=1;horizontal=1;horizontalStack=0;resizeParent=1;resizeParentMax=0;resizeLast=0;html=1;dashed=0;collapsible=0;" vertex="1" parent="1">
          <mxGeometry x="440" y="350" width="170" height="80" as="geometry" />
        </mxCell>
        <mxCell id="47qLA5IY4Jjz_HCi7pHy-26" value="Établir une facture détaillée" style="html=1;strokeColor=none;fillColor=none;align=center;verticalAlign=middle;rotatable=0;" vertex="1" parent="47qLA5IY4Jjz_HCi7pHy-25">
          <mxGeometry y="32.666666666666664" width="170" height="20" as="geometry" />
        </mxCell>
        <mxCell id="47qLA5IY4Jjz_HCi7pHy-27" value="&amp;lt;&amp;lt;extend&amp;gt;&amp;gt;" style="endArrow=open;startArrow=none;endFill=0;startFill=0;endSize=8;html=1;verticalAlign=bottom;dashed=1;labelBackgroundColor=none;rounded=0;strokeWidth=1;entryX=0.7;entryY=0.963;entryDx=0;entryDy=0;entryPerimeter=0;exitX=0;exitY=0;exitDx=0;exitDy=0;" edge="1" parent="1" source="47qLA5IY4Jjz_HCi7pHy-26" target="47qLA5IY4Jjz_HCi7pHy-5">
          <mxGeometry width="160" relative="1" as="geometry">
            <mxPoint x="380" y="320" as="sourcePoint" />
            <mxPoint x="540" y="320" as="targetPoint" />
          </mxGeometry>
        </mxCell>
        <mxCell id="47qLA5IY4Jjz_HCi7pHy-29" value="Agence de voyage" style="text;html=1;strokeColor=none;fillColor=none;align=center;verticalAlign=middle;whiteSpace=wrap;rounded=0;" vertex="1" parent="1">
          <mxGeometry x="414" y="49" width="131" height="30" as="geometry" />
        </mxCell>
        <mxCell id="47qLA5IY4Jjz_HCi7pHy-30" value="" style="html=1;verticalAlign=bottom;labelBackgroundColor=none;endArrow=block;endFill=0;rounded=0;strokeWidth=1;entryX=0.975;entryY=0.338;entryDx=0;entryDy=0;entryPerimeter=0;exitX=0.065;exitY=0.75;exitDx=0;exitDy=0;exitPerimeter=0;" edge="1" parent="1" source="47qLA5IY4Jjz_HCi7pHy-16" target="47qLA5IY4Jjz_HCi7pHy-5">
          <mxGeometry width="160" relative="1" as="geometry">
            <mxPoint x="490" y="230" as="sourcePoint" />
            <mxPoint x="650" y="230" as="targetPoint" />
          </mxGeometry>
        </mxCell>
      </root>
    </mxGraphModel>
  </diagram>
</mxfile>
